<mxfile host="app.diagrams.net" modified="2023-04-19T15:35:50.003Z" agent="Mozilla/5.0 (Windows NT 10.0; Win64; x64) AppleWebKit/537.36 (KHTML, like Gecko) Chrome/111.0.0.0 Safari/537.36" etag="4pfgWJlTN5afvhg_eL_a" version="21.2.0" type="github">
  <diagram name="第 1 页" id="zFAkAX6551yUN1Mrkn4O">
    <mxGraphModel dx="1562" dy="869" grid="1" gridSize="10" guides="1" tooltips="1" connect="1" arrows="1" fold="1" page="1" pageScale="1" pageWidth="827" pageHeight="1169" math="0" shadow="0">
      <root>
        <mxCell id="0" />
        <mxCell id="1" parent="0" />
        <mxCell id="VOBPGtq8PVNcJ2LL0hZS-1" value="" style="rounded=0;whiteSpace=wrap;html=1;" vertex="1" parent="1">
          <mxGeometry x="220" y="210" width="420" height="410" as="geometry" />
        </mxCell>
        <mxCell id="VOBPGtq8PVNcJ2LL0hZS-2" value="" style="rounded=0;whiteSpace=wrap;html=1;" vertex="1" parent="1">
          <mxGeometry x="250" y="240" width="360" height="100" as="geometry" />
        </mxCell>
        <mxCell id="VOBPGtq8PVNcJ2LL0hZS-3" value="" style="rounded=0;whiteSpace=wrap;html=1;" vertex="1" parent="1">
          <mxGeometry x="250" y="370" width="360" height="100" as="geometry" />
        </mxCell>
        <mxCell id="VOBPGtq8PVNcJ2LL0hZS-4" value="" style="rounded=0;whiteSpace=wrap;html=1;" vertex="1" parent="1">
          <mxGeometry x="250" y="490" width="360" height="100" as="geometry" />
        </mxCell>
        <mxCell id="VOBPGtq8PVNcJ2LL0hZS-5" value="" style="rounded=1;whiteSpace=wrap;html=1;" vertex="1" parent="1">
          <mxGeometry x="274" y="255" width="140" height="70" as="geometry" />
        </mxCell>
        <mxCell id="VOBPGtq8PVNcJ2LL0hZS-6" value="聚合" style="rounded=1;whiteSpace=wrap;html=1;fillColor=#d5e8d4;strokeColor=#82b366;" vertex="1" parent="1">
          <mxGeometry x="490" y="270" width="80" height="40" as="geometry" />
        </mxCell>
        <mxCell id="VOBPGtq8PVNcJ2LL0hZS-11" value="" style="group;fillColor=#ffe6cc;strokeColor=#d79b00;" vertex="1" connectable="0" parent="1">
          <mxGeometry x="284" y="280" width="108" height="40" as="geometry" />
        </mxCell>
        <mxCell id="VOBPGtq8PVNcJ2LL0hZS-12" value="" style="group;fillColor=#ffe6cc;strokeColor=#d79b00;" vertex="1" connectable="0" parent="VOBPGtq8PVNcJ2LL0hZS-11">
          <mxGeometry width="108" height="40" as="geometry" />
        </mxCell>
        <mxCell id="VOBPGtq8PVNcJ2LL0hZS-8" value="线程池A" style="rounded=0;whiteSpace=wrap;html=1;fillColor=#ffe6cc;strokeColor=#d79b00;" vertex="1" parent="VOBPGtq8PVNcJ2LL0hZS-12">
          <mxGeometry width="36" height="40" as="geometry" />
        </mxCell>
        <mxCell id="VOBPGtq8PVNcJ2LL0hZS-9" value="线程池B" style="rounded=0;whiteSpace=wrap;html=1;fillColor=#ffe6cc;strokeColor=#d79b00;" vertex="1" parent="VOBPGtq8PVNcJ2LL0hZS-12">
          <mxGeometry x="36" width="36" height="40" as="geometry" />
        </mxCell>
        <mxCell id="VOBPGtq8PVNcJ2LL0hZS-10" value="..." style="rounded=0;whiteSpace=wrap;html=1;fillColor=#ffe6cc;strokeColor=#d79b00;" vertex="1" parent="VOBPGtq8PVNcJ2LL0hZS-12">
          <mxGeometry x="72" width="36" height="40" as="geometry" />
        </mxCell>
        <mxCell id="VOBPGtq8PVNcJ2LL0hZS-13" value="" style="endArrow=classic;html=1;rounded=0;exitX=1;exitY=0.5;exitDx=0;exitDy=0;" edge="1" parent="1" source="VOBPGtq8PVNcJ2LL0hZS-6">
          <mxGeometry width="50" height="50" relative="1" as="geometry">
            <mxPoint x="670" y="300" as="sourcePoint" />
            <mxPoint x="720" y="290" as="targetPoint" />
          </mxGeometry>
        </mxCell>
        <mxCell id="VOBPGtq8PVNcJ2LL0hZS-14" value="返回数据" style="edgeLabel;html=1;align=center;verticalAlign=middle;resizable=0;points=[];" vertex="1" connectable="0" parent="VOBPGtq8PVNcJ2LL0hZS-13">
          <mxGeometry x="-0.4027" y="1" relative="1" as="geometry">
            <mxPoint as="offset" />
          </mxGeometry>
        </mxCell>
        <mxCell id="VOBPGtq8PVNcJ2LL0hZS-15" value="" style="endArrow=classic;html=1;rounded=0;exitX=1;exitY=0.5;exitDx=0;exitDy=0;" edge="1" parent="1" source="VOBPGtq8PVNcJ2LL0hZS-5">
          <mxGeometry width="50" height="50" relative="1" as="geometry">
            <mxPoint x="420" y="289.5" as="sourcePoint" />
            <mxPoint x="490" y="290" as="targetPoint" />
          </mxGeometry>
        </mxCell>
      </root>
    </mxGraphModel>
  </diagram>
</mxfile>
